{
  "accessors": [
    {
      "bufferView": 2,
      "componentType": 5126,
      "count": 3449,
      "max": [
        0.9093982577323914,
        4.569938659667969,
        4.580140113830566
      ],
      "min": [
        -4.4791460037231445,
        -4.569941520690918,
        -4.580137252807617
      ],
      "type": "VEC3"
    },
    {
      "bufferView": 2,
      "byteOffset": 41388,
      "componentType": 5126,
      "count": 3449,
      "max": [
        1.0,
        1.0,
        1.0
      ],
      "min": [
        -1.0,
        -1.0,
        -1.0
      ],
      "type": "VEC3"
    },
    {
      "bufferView": 1,
      "componentType": 5126,
      "count": 3449,
      "max": [
        1.0,
        1.0
      ],
      "min": [
        4.018783874926157e-05,
        0.0
      ],
      "type": "VEC2"
    },
    {
      "bufferView": 1,
      "byteOffset": 27592,
      "componentType": 5126,
      "count": 3449,
      "max": [
        1.0,
        1.0
      ],
      "min": [
        4.018783874926157e-05,
        0.0
      ],
      "type": "VEC2"
    },
    {
      "bufferView": 0,
      "componentType": 5125,
      "count": 10008,
      "type": "SCALAR"
    },
    {
      "bufferView": 2,
      "byteOffset": 82776,
      "componentType": 5126,
      "count": 1944,
      "max": [
        0.4778633713722229,
        3.660130500793457,
        3.660130262374878
      ],
      "min": [
        -0.20020711421966553,
        -3.660130262374878,
        -3.6601293087005615
      ],
      "type": "VEC3"
    },
    {
      "bufferView": 2,
      "byteOffset": 106104,
      "componentType": 5126,
      "count": 1944,
      "max": [
        1.0,
        1.0,
        1.0
      ],
      "min": [
        -0.0012512961402535439,
        -1.0,
        -1.0
      ],
      "type": "VEC3"
    },
    {
      "bufferView": 3,
      "componentType": 5126,
      "count": 1944,
      "max": [
        0.9999960660934448,
        0.9999961256980896,
        0.998350203037262,
        1.0
      ],
      "min": [
        -0.999998927116394,
        -0.9990645051002502,
        -0.9979950785636902,
        -1.0
      ],
      "type": "VEC4"
    },
    {
      "bufferView": 1,
      "byteOffset": 55184,
      "componentType": 5126,
      "count": 1944,
      "max": [
        0.9351750612258911,
        0.9994803667068481
      ],
      "min": [
        0.000519586494192481,
        0.000519586494192481
      ],
      "type": "VEC2"
    },
    {
      "bufferView": 0,
      "byteOffset": 40032,
      "componentType": 5125,
      "count": 4320,
      "type": "SCALAR"
    },
    {
      "bufferView": 2,
      "byteOffset": 129432,
      "componentType": 5126,
      "count": 528,
      "max": [
        4.101644039154053,
        4.1016435623168945,
        1.5560579299926758
      ],
      "min": [
        -4.101644515991211,
        -4.101645469665527,
        -2.1889030933380127
      ],
      "type": "VEC3"
    },
    {
      "bufferView": 2,
      "byteOffset": 135768,
      "componentType": 5126,
      "count": 528,
      "max": [
        0.9944584369659424,
        0.9944584369659424,
        0.9999920725822449
      ],
      "min": [
        -0.9944584965705872,
        -0.9944584369659424,
        -0.9999921321868896
      ],
      "type": "VEC3"
    },
    {
      "bufferView": 1,
      "byteOffset": 70736,
      "componentType": 5126,
      "count": 528,
      "max": [
        0.999904990196228,
        0.9994730353355408
      ],
      "min": [
        0.0,
        0.0
      ],
      "type": "VEC2"
    },
    {
      "bufferView": 0,
      "byteOffset": 57312,
      "componentType": 5125,
      "count": 2880,
      "type": "SCALAR"
    },
    {
      "bufferView": 2,
      "byteOffset": 142104,
      "componentType": 5126,
      "count": 321,
      "max": [
        1.1514794826507568,
        1.1514794826507568,
        1.109031178003761e-08
      ],
      "min": [
        -1.1514794826507568,
        -1.1514794826507568,
        -0.15204225480556488
      ],
      "type": "VEC3"
    },
    {
      "bufferView": 2,
      "byteOffset": 145956,
      "componentType": 5126,
      "count": 321,
      "max": [
        0.9778056144714355,
        0.9778056144714355,
        1.0
      ],
      "min": [
        -0.9778056144714355,
        -0.9778056144714355,
        -1.0
      ],
      "type": "VEC3"
    },
    {
      "bufferView": 1,
      "byteOffset": 74960,
      "componentType": 5126,
      "count": 321,
      "max": [
        0.9954175353050232,
        1.1154899597167969
      ],
      "min": [
        0.01021510362625122,
        0.007248222827911377
      ],
      "type": "VEC2"
    },
    {
      "bufferView": 0,
      "byteOffset": 68832,
      "componentType": 5125,
      "count": 1050,
      "type": "SCALAR"
    },
    {
      "bufferView": 4,
      "componentType": 5126,
      "count": 1,
      "max": [
        0.0
      ],
      "min": [
        0.0
      ],
      "type": "SCALAR"
    },
    {
      "bufferView": 5,
      "componentType": 5126,
      "count": 1,
      "max": [
        0.5000000596046448,
        0.4999999403953552,
        0.5,
        -0.5
      ],
      "min": [
        0.5000000596046448,
        0.4999999403953552,
        0.5,
        -0.5
      ],
      "type": "VEC4"
    },
    {
      "bufferView": 4,
      "byteOffset": 4,
      "componentType": 5126,
      "count": 1,
      "max": [
        0.0
      ],
      "min": [
        0.0
      ],
      "type": "SCALAR"
    },
    {
      "bufferView": 5,
      "byteOffset": 16,
      "componentType": 5126,
      "count": 1,
      "max": [
        0.5000000596046448,
        0.4999999403953552,
        0.5,
        -0.5
      ],
      "min": [
        0.5000000596046448,
        0.4999999403953552,
        0.5,
        -0.5
      ],
      "type": "VEC4"
    }
  ],
  "animations": [
    {
      "channels": [
        {
          "sampler": 0,
          "target": {
            "node": 4,
            "path": "rotation"
          }
        }
      ],
      "name": "Mugen|MugenAction",
      "samplers": [
        {
          "input": 18,
          "interpolation": "LINEAR",
          "output": 19
        }
      ]
    },
    {
      "channels": [
        {
          "sampler": 0,
          "target": {
            "node": 4,
            "path": "rotation"
          }
        }
      ],
      "name": "Mugen|MugenAction.001",
      "samplers": [
        {
          "input": 20,
          "interpolation": "LINEAR",
          "output": 21
        }
      ]
    }
  ],
  "asset": {
    "extras": {
      "author": "Martin Trafas (https://sketchfab.com/Bexxie)",
      "license": "CC-BY-4.0 (http://creativecommons.org/licenses/by/4.0/)",
      "source": "https://sketchfab.com/3d-models/mugen-m7-tuner-car-wheel-3efc6a0cb9cc44d9adf24e226991a261",
      "title": "Mugen M7 Tuner Car Wheel"
    },
    "generator": "Sketchfab-12.66.0",
    "version": "2.0"
  },
  "bufferViews": [
    {
      "buffer": 0,
      "byteLength": 73032,
      "name": "floatBufferViews",
      "target": 34963
    },
    {
      "buffer": 0,
      "byteLength": 77528,
      "byteOffset": 73032,
      "byteStride": 8,
      "name": "floatBufferViews",
      "target": 34962
    },
    {
      "buffer": 0,
      "byteLength": 149808,
      "byteOffset": 150560,
      "byteStride": 12,
      "name": "floatBufferViews",
      "target": 34962
    },
    {
      "buffer": 0,
      "byteLength": 31104,
      "byteOffset": 300368,
      "byteStride": 16,
      "name": "floatBufferViews",
      "target": 34962
    },
    {
      "buffer": 0,
      "byteLength": 8,
      "byteOffset": 331472,
      "name": "floatBufferViews"
    },
    {
      "buffer": 0,
      "byteLength": 32,
      "byteOffset": 331480,
      "byteStride": 16,
      "name": "floatBufferViews"
    }
  ],
  "buffers": [
    {
      "byteLength": 331512,
      "uri": "scene.bin"
    }
  ],
  "images": [
    {
      "uri": "textures/Mugen_baseColor.png"
    },
    {
      "uri": "textures/Mugen_metallicRoughness.png"
    },
    {
      "uri": "textures/Nuts_normal.png"
    },
    {
      "uri": "textures/Stand_baseColor.png"
    }
  ],
  "materials": [
    {
      "doubleSided": true,
      "name": "Mugen",
      "pbrMetallicRoughness": {
        "baseColorTexture": {
          "index": 0
        },
        "metallicRoughnessTexture": {
          "index": 1
        },
        "roughnessFactor": 0.33708079268292684
      }
    },
    {
      "doubleSided": true,
      "name": "Nuts",
      "normalTexture": {
        "index": 2
      },
      "pbrMetallicRoughness": {
        "baseColorFactor": [
          0.07815172394660573,
          0.07815172394660573,
          0.07815172394660573,
          1.0
        ],
        "roughnessFactor": 0.34927591463414637
      }
    },
    {
      "doubleSided": true,
      "name": "Tire.001",
      "pbrMetallicRoughness": {
        "baseColorFactor": [
          0.008959033215757944,
          0.008959033215757944,
          0.008959033215757944,
          1.0
        ],
        "metallicFactor": 0.0,
        "roughnessFactor": 0.6663490853658537
      }
    },
    {
      "alphaMode": "BLEND",
      "doubleSided": true,
      "name": "Stand",
      "pbrMetallicRoughness": {
        "baseColorFactor": [
          1.0,
          1.0,
          1.0,
          0.0
        ],
        "baseColorTexture": {
          "index": 3
        },
        "metallicFactor": 0.0
      }
    }
  ],
  "meshes": [
    {
      "name": "Mugen_Mugen_0",
      "primitives": [
        {
          "attributes": {
            "NORMAL": 1,
            "POSITION": 0,
            "TEXCOORD_0": 2,
            "TEXCOORD_1": 3
          },
          "indices": 4,
          "material": 0,
          "mode": 4
        }
      ]
    },
    {
      "name": "Mugen_Nuts_0",
      "primitives": [
        {
          "attributes": {
            "NORMAL": 6,
            "POSITION": 5,
            "TANGENT": 7,
            "TEXCOORD_0": 8
          },
          "indices": 9,
          "material": 1,
          "mode": 4
        }
      ]
    },
    {
      "name": "Tire_Tire.001_0",
      "primitives": [
        {
          "attributes": {
            "NORMAL": 11,
            "POSITION": 10,
            "TEXCOORD_0": 12
          },
          "indices": 13,
          "material": 2,
          "mode": 4
        }
      ]
    },
    {
      "name": "Plane_Stand_0",
      "primitives": [
        {
          "attributes": {
            "NORMAL": 15,
            "POSITION": 14,
            "TEXCOORD_0": 16
          },
          "indices": 17,
          "material": 3,
          "mode": 4
        }
      ]
    }
  ],
  "nodes": [
    {
      "children": [
        1
      ],
      "matrix": [
        1.0,
        0.0,
        0.0,
        0.0,
        0.0,
        2.220446049250313e-16,
        -1.0,
        0.0,
        0.0,
        1.0,
        2.220446049250313e-16,
        0.0,
        0.0,
        0.0,
        0.0,
        1.0
      ],
      "name": "Sketchfab_model"
    },
    {
      "children": [
        2
      ],
      "matrix": [
        1.0,
        0.0,
        0.0,
        0.0,
        0.0,
        0.0,
        1.0,
        0.0,
        0.0,
        -1.0,
        0.0,
        0.0,
        0.0,
        0.0,
        0.0,
        1.0
      ],
      "name": "0c53b4a4c45f463b9fe14fc05f5b431f.fbx"
    },
    {
      "children": [
        3
      ],
      "name": "Object_2"
    },
    {
      "children": [
        4,
        9
      ],
      "name": "RootNode"
    },
    {
      "children": [
        5,
        6,
        7
      ],
      "name": "Mugen",
      "rotation": [
        -0.5000000596046448,
        -0.49999991059303284,
        -0.5,
        0.5
      ],
      "scale": [
        100.0,
        100.0,
        100.0
      ],
      "translation": [
        128.757080078125,
        -2.384185791015625e-05,
        -128.757080078125
      ]
    },
    {
      "mesh": 0,
      "name": "Mugen_Mugen_0"
    },
    {
      "mesh": 1,
      "name": "Mugen_Nuts_0"
    },
    {
      "children": [
        8
      ],
      "name": "Tire",
      "rotation": [
        2.669255572129714e-08,
        0.7071067690849304,
        -2.669255216858346e-08,
        0.7071068286895752
      ],
      "scale": [
        1.4787628650665283,
        1.4787628650665283,
        1.4787628650665283
      ],
      "translation": [
        -1.3235405683517456,
        -1.1920928955078125e-07,
        -1.3234889800848443e-23
      ]
    },
    {
      "mesh": 2,
      "name": "Tire_Tire.001_0"
    },
    {
      "children": [
        10
      ],
      "name": "Plane",
      "rotation": [
        -0.5000000596046448,
        -0.49999991059303284,
        -0.5,
        0.5
      ],
      "scale": [
        1821.072021484375,
        1821.072021484375,
        1821.072021484375
      ],
      "translation": [
        128.757080078125,
        -605.365478515625,
        128.757080078125
      ]
    },
    {
      "mesh": 3,
      "name": "Plane_Stand_0"
    }
  ],
  "samplers": [
    {
      "magFilter": 9729,
      "minFilter": 9987,
      "wrapS": 10497,
      "wrapT": 10497
    }
  ],
  "scene": 0,
  "scenes": [
    {
      "name": "Sketchfab_Scene",
      "nodes": [
        0
      ]
    }
  ],
  "textures": [
    {
      "sampler": 0,
      "source": 0
    },
    {
      "sampler": 0,
      "source": 1
    },
    {
      "sampler": 0,
      "source": 2
    },
    {
      "sampler": 0,
      "source": 3
    }
  ]
}
